<svg width="195" height="40" fill="none" xmlns="http://www.w3.org/2000/svg"><path d="M74.512 9.727H55.295l-2.094 21.466 19.177.013.606-5.889H61.433l.961-9.74h3.873l-2.753 7.834 7.679.026 2.74-7.821.579-5.889ZM31.886 31.22l2.476-25.423-1.936-.013L32.98 0h9.668l-1.739 17.627 4.597-7.9 7.718-.013-4.702 7.835 3.925-.026-2.133 21.544H42.62l1.554-15.63h-3.951l-.738 7.782h-7.6Zm-9.81 0 7.678-.027 2.134-21.466H24.21L22.076 31.22Zm-21.272 0L3.281 5.796l-1.99-.013L1.859 0h9.694L9.036 25.383h3.846l.962-9.767H11.92l.553-5.902h9.615L19.982 31.22H.804Z" fill="#0C1111"/><path fill-rule="evenodd" clip-rule="evenodd" d="m.632 32.447 40.58.078-.592 6.724L0 39.171l.632-6.737v.013ZM195 9.937h-19.243l-2.108 21.504h7.64l1.567-15.668h3.833l-.382 3.917h7.718L195 9.858v.078Zm-21.337 0-.58 5.888-2.753 7.834h-7.665l2.752-7.834h-3.872l-.961 9.74h11.551l-.606 5.89h-19.177l2.094-21.453 19.217-.066Zm-34.97 21.504h11.538l.54-5.862h-3.846l.962-9.767h3.951l.566-5.863h-3.951l.369-3.917h-7.692l-2.437 25.41Zm0-21.453-2.081 21.48h-7.666l1.528-15.67h-3.872l-1.475 15.67h-7.613l2.041-21.48h19.138Zm-21.272 0h-19.19L96.15 31.441h19.177l.58-5.862h-11.538l1.001-9.741h3.872l-2.753 7.834h7.679l2.753-7.834.58-5.889-.08.04Zm-21.271 0-.777 7.756h-7.771l.197-1.893h-3.82l-1 9.728h3.846l.21-1.972h7.732l-.803 7.834H74.746L76.88 9.988h19.27Z" fill="#E30613"/></svg>