<svg width="20" height="18" fill="none" xmlns="http://www.w3.org/2000/svg"><path d="M15.93 10.131c-.534 0-.946.411-.946.905v4.236H5.648v-4.236c0-.494-.412-.864-.905-.864-.494 0-.905.37-.905.864v5.1c0 .494.411.864.905.864h11.146c.494 0 .905-.37.905-.864v-5.1c.041-.494-.37-.905-.864-.905Z" fill="#F2F2F2" stroke="#000" stroke-width=".4"/><path d="m19.344 8.774-8.35-7.527c-.37-.33-.945-.33-1.274 0L1.288 8.774A.97.97 0 0 0 1 9.432a.97.97 0 0 0 .288.658c.164.164.411.247.658.247.247 0 .452-.083.658-.247l7.733-6.992 7.732 6.95a.935.935 0 0 0 .658.248c.247 0 .453-.083.658-.247a.97.97 0 0 0 .288-.658c0-.206-.123-.453-.329-.617Z" fill="#F2F2F2" stroke="#000" stroke-width=".4"/></svg>