<svg width="18" height="18" fill="none" xmlns="http://www.w3.org/2000/svg"><path d="M10.388 6h-2.21a.3.3 0 0 0-.294.304V8.74h-.59A.3.3 0 0 0 7 9.043a.3.3 0 0 0 .295.305h.589v.727h-.59A.3.3 0 0 0 7 10.38a.3.3 0 0 0 .295.304h.589v2.012a.3.3 0 0 0 .295.304.3.3 0 0 0 .294-.304v-2.012h1.794a.3.3 0 0 0 .295-.304.3.3 0 0 0-.294-.305H8.473v-.727h1.915c1.058 0 1.612-.843 1.612-1.674S11.446 6 10.388 6Zm0 2.74H8.473V6.608h1.915c.319 0 .584.112.766.325.162.189.257.46.257.74 0 .53-.319 1.065-1.023 1.065Z" fill="#F2F2F2" stroke="#F2F2F2" stroke-width=".2"/><path d="M9 1C4.588 1 1 4.588 1 9s3.588 8 8 8 8-3.588 8-8-3.588-8-8-8Zm0 15.184c-3.96 0-7.184-3.225-7.184-7.184 0-3.96 3.225-7.184 7.184-7.184 3.96 0 7.184 3.225 7.184 7.184 0 3.96-3.225 7.184-7.184 7.184Z" fill="#F2F2F2" stroke="#F2F2F2" stroke-width=".2"/></svg>