<svg width="22" height="22" fill="none" xmlns="http://www.w3.org/2000/svg"><path fill-rule="evenodd" clip-rule="evenodd" d="M0 9.646C0 4.374 4.248 0 9.613 0c5.254 0 9.502 4.374 9.502 9.646a9.519 9.519 0 0 1-2.347 6.279l.002.002 4.807 4.262c.447.449.559 1.01.112 1.458-.336.449-1.006.449-1.454.113l-4.806-4.263a.848.848 0 0 1-.174-.175 9.443 9.443 0 0 1-5.642 1.858C4.36 19.18 0 14.918 0 9.646Zm1.788 0c0 4.262 3.466 7.852 7.825 7.852 4.248 0 7.713-3.59 7.825-7.852 0-4.374-3.465-7.852-7.825-7.852S1.79 5.272 1.79 9.646Z" fill="#fff"/></svg>