<svg width="32" height="33" fill="none" xmlns="http://www.w3.org/2000/svg"><g clip-path="url(#a)"><path d="M16 33c8.837 0 16-7.387 16-16.5S24.837 0 16 0 0 7.387 0 16.5 7.163 33 16 33Z" fill="#E53935"/><path d="M6.11 21.198c.423 1.39 1.715 1.644 1.801 1.692 2.127.538 14.05.54 16.208 0 1.479-.396 1.75-1.612 1.801-1.692.563-2.778.6-6.4-.026-9.552l.026.157c-.422-1.39-1.715-1.644-1.801-1.693-2.099-.529-14.051-.549-16.208 0-1.478.397-1.75 1.613-1.8 1.693-.603 2.92-.633 6.269 0 9.395Zm7.834-1.778v-5.832l5.402 2.92-5.402 2.912Z" fill="#fff"/></g><defs><clipPath id="a"><path fill="#fff" d="M0 0h32v33H0z"/></clipPath></defs></svg>