<svg width="33" height="33" fill="none" xmlns="http://www.w3.org/2000/svg"><g clip-path="url(#a)"><path d="M16.5 33C25.613 33 33 25.613 33 16.5S25.613 0 16.5 0 0 7.387 0 16.5 7.387 33 16.5 33Z" fill="#fff"/><path d="M14.85 14.559v-.777c-.259-.064-.582-.064-.841-.064a6.254 6.254 0 0 0-5.953 4.335c-.841 2.588.194 5.37 2.394 6.924-2.33-2.524-2.2-6.471.324-8.8a6.007 6.007 0 0 1 4.076-1.618Z" fill="#25F4EE"/><path d="M14.98 23.618a2.848 2.848 0 0 0 2.847-2.718V7.312h2.458c-.064-.26-.064-.583-.064-.841h-3.365v13.523c-.065 1.553-1.294 2.718-2.847 2.718-.453 0-.906-.13-1.294-.324a2.714 2.714 0 0 0 2.265 1.23Zm9.964-11.712v-.777a4.666 4.666 0 0 1-2.588-.776c.712.776 1.618 1.359 2.588 1.553Z" fill="#25F4EE"/><path d="M22.356 10.353c-.776-.841-1.165-1.941-1.165-3.106h-.905c.258 1.294 1.035 2.459 2.07 3.106Zm-8.347 6.665c-1.553 0-2.847 1.294-2.847 2.847 0 1.035.582 2.006 1.488 2.523-.906-1.294-.647-3.04.647-3.947.453-.323 1.1-.517 1.683-.517.258 0 .582.064.84.129v-3.43c-.258-.064-.582-.064-.84-.064h-.13v2.653a1.791 1.791 0 0 0-.841-.194Z" fill="#FE2C55"/><path d="M24.944 11.906v2.653c-1.682 0-3.3-.518-4.723-1.553v6.859a6.213 6.213 0 0 1-6.212 6.212 6.256 6.256 0 0 1-3.559-1.1c2.33 2.523 6.277 2.652 8.8.323a6.133 6.133 0 0 0 2.006-4.53v-6.858c1.359.97 3.041 1.488 4.724 1.488v-3.365c-.389 0-.712-.064-1.036-.13Z" fill="#FE2C55"/><path d="M20.22 19.865v-6.86c1.36.971 3.042 1.49 4.724 1.49V11.84c-.97-.194-1.876-.712-2.588-1.488-1.1-.712-1.812-1.812-2.07-3.106h-2.46v13.588a2.836 2.836 0 0 1-2.976 2.718c-.841-.065-1.682-.453-2.2-1.165-1.359-.712-1.941-2.459-1.165-3.817.518-.906 1.424-1.489 2.524-1.489.259 0 .582.065.841.13v-2.653c-3.43.065-6.147 2.912-6.082 6.341 0 1.553.647 3.041 1.682 4.141 1.036.712 2.33 1.1 3.559 1.035 3.43.065 6.212-2.717 6.212-6.211Z" fill="#000"/></g><defs><clipPath id="a"><path fill="#fff" d="M0 0h33v33H0z"/></clipPath></defs></svg>