<svg width="33" height="33" fill="none" xmlns="http://www.w3.org/2000/svg"><g clip-path="url(#a)"><path d="M16.5 33C25.613 33 33 25.613 33 16.5S25.613 0 16.5 0 0 7.387 0 16.5 7.387 33 16.5 33Z" fill="#4D76A1"/><path fill-rule="evenodd" clip-rule="evenodd" d="M15.877 23.737h1.295s.391-.043.59-.258c.184-.198.179-.57.179-.57s-.026-1.737.78-1.993c.796-.252 1.817 1.68 2.899 2.422.818.562 1.44.439 1.44.439l2.893-.04s1.514-.093.796-1.284c-.059-.097-.418-.88-2.151-2.489-1.814-1.684-1.571-1.411.614-4.324 1.331-1.774 1.863-2.857 1.697-3.32-.159-.443-1.137-.326-1.137-.326l-3.258.02s-.242-.032-.42.075c-.176.105-.289.35-.289.35s-.515 1.372-1.203 2.54c-1.45 2.463-2.03 2.593-2.268 2.44-.551-.357-.413-1.432-.413-2.196 0-2.388.362-3.383-.705-3.64-.355-.086-.615-.143-1.52-.152-1.163-.012-2.147.004-2.704.277-.37.181-.657.586-.482.609.215.029.703.131.961.483.334.455.322 1.475.322 1.475s.192 2.81-.448 3.159c-.439.24-1.041-.25-2.335-2.484-.662-1.145-1.163-2.41-1.163-2.41s-.096-.237-.268-.363a1.351 1.351 0 0 0-.5-.202l-3.096.02s-.465.013-.636.215c-.152.18-.012.551-.012.551s2.424 5.67 5.168 8.528c2.516 2.62 5.374 2.448 5.374 2.448Z" fill="#fff"/></g><defs><clipPath id="a"><path fill="#fff" d="M0 0h33v33H0z"/></clipPath></defs></svg>