<svg width="104" height="22" fill="none" xmlns="http://www.w3.org/2000/svg"><path fill-rule="evenodd" clip-rule="evenodd" d="M.433.332C.158.597 0 .999 0 1.528V20.26c0 .525.158.931.441 1.185l.075.056L12.23 11.004v-.235L.503.276l-.07.056Z" fill="url(#a)"/><path fill-rule="evenodd" clip-rule="evenodd" d="m16.128 14.518-3.906-3.503v-.246l3.91-3.503.084.049 4.626 2.355c1.323.667 1.323 1.77 0 2.448l-4.626 2.351-.088.049Z" fill="url(#b)"/><path fill-rule="evenodd" clip-rule="evenodd" d="m16.216 14.47-3.994-3.578L.432 21.456c.433.413 1.157.462 1.968.056l13.816-7.043Z" fill="url(#c)"/><path fill-rule="evenodd" clip-rule="evenodd" d="M16.216 7.315 2.396.284C1.59-.13.861-.074.428.34l11.794 10.552 3.994-3.577Z" fill="url(#d)"/><path fill-rule="evenodd" clip-rule="evenodd" d="M26.329 10.3c0-3 2.816-5.444 6.165-5.444 1.85 0 3.17.652 4.164 1.498l-1.173 1.05c-.712-.596-1.672-1.061-2.995-1.061-2.447 0-4.36 1.762-4.36 3.953s1.914 3.957 4.355 3.957c1.585 0 2.488-.57 3.066-1.088.475-.424.787-1.036.907-1.87H32.49V9.812h5.587c.058.264.091.585.091.928 0 1.114-.341 2.496-1.44 3.48-1.069.995-2.429 1.527-4.238 1.527-3.35-.003-6.166-2.444-6.161-5.447Zm16.357-1.57c-2.163 0-3.931 1.476-3.931 3.503 0 2.02 1.763 3.502 3.93 3.502 2.164 0 3.928-1.486 3.928-3.506 0-2.023-1.764-3.499-3.927-3.499Zm0 5.63c-1.186 0-2.21-.875-2.21-2.124 0-1.263 1.024-2.123 2.21-2.123 1.185 0 2.209.86 2.209 2.123 0 1.249-1.024 2.124-2.21 2.124Zm8.57-5.63c-2.164 0-3.928 1.476-3.928 3.503 0 2.02 1.764 3.502 3.927 3.502 2.163 0 3.927-1.486 3.927-3.506 0-2.023-1.76-3.499-3.927-3.499Zm0 5.63c-1.186 0-2.21-.875-2.21-2.124 0-1.263 1.024-2.123 2.21-2.123 1.185 0 2.208.86 2.208 2.123 0 1.249-1.023 2.124-2.209 2.124Zm10.516-5.414v.57h-.058c-.383-.413-1.128-.782-2.06-.782-1.955 0-3.752 1.543-3.752 3.521 0 1.964 1.793 3.492 3.752 3.492.932 0 1.673-.373 2.06-.798h.058v.503c0 1.342-.799 2.057-2.088 2.057a2.158 2.158 0 0 1-1.972-1.248l-1.498.559c.428.927 1.572 2.071 3.47 2.071 2.013 0 3.719-1.061 3.719-3.651V8.943l-1.631.004Zm-1.968 5.414c-1.186 0-2.18-.89-2.18-2.112 0-1.234.994-2.14 2.18-2.14 1.17 0 2.088.902 2.088 2.14 0 1.222-.919 2.112-2.088 2.112Zm4.784-9.133h1.722V15.53h-1.722V5.228Zm6.436 9.133c-.874 0-1.498-.357-1.897-1.062l5.233-1.94-.179-.4c-.324-.782-1.319-2.228-3.349-2.228-2.013 0-3.69 1.42-3.69 3.506 0 1.964 1.66 3.503 3.886 3.503 1.793 0 2.833-.98 3.261-1.554l-1.335-.797c-.45.589-1.057.976-1.93.972Zm-.133-4.274c.682 0 1.26.306 1.451.742l-3.498 1.3c-.046-1.352 1.169-2.042 2.047-2.042Zm11.02-4.859h-4.115V15.53h1.718v-3.905h2.396c1.901 0 3.773-1.233 3.773-3.2 0-1.96-1.867-3.198-3.773-3.198Zm.041 4.964H79.51V6.659h2.442c1.281 0 2.013.954 2.013 1.767.005.8-.728 1.766-2.013 1.766Zm6.394 5.34V5.227h-1.718V15.53h1.718Zm7.713-.02v-3.949c0-1.83-1.527-2.85-3.495-2.85-1.24 0-2.53.491-3.062 1.576l1.523.57c.324-.57.932-.757 1.568-.757.886 0 1.79.477 1.802 1.327v.108c-.312-.16-.974-.399-1.79-.399-1.642 0-3.315.809-3.315 2.318 0 1.379 1.348 2.265 2.858 2.265 1.157 0 1.789-.462 2.188-1.006h.059v.798h1.664Zm-3.703-1.15c-.561 0-1.348-.254-1.348-.873 0-.797.978-1.103 1.822-1.103.758 0 1.111.146 1.569.343-.13.924-1.003 1.621-2.043 1.632Zm9.739-5.422-1.968 4.464h-.058L98.026 8.94h-1.851l3.062 6.245-1.747 3.473h1.788L104 8.94h-1.905Z" fill="#fff"/><defs><linearGradient id="a" x1="11.183" y1="1.325" x2="-7.284" y2="6.819" gradientUnits="userSpaceOnUse"><stop stop-color="#00A0FF"/><stop offset=".007" stop-color="#00A1FF"/><stop offset=".26" stop-color="#00BEFF"/><stop offset=".512" stop-color="#00D2FF"/><stop offset=".76" stop-color="#00DFFF"/><stop offset="1" stop-color="#00E3FF"/></linearGradient><linearGradient id="b" x1="22.569" y1="10.894" x2="-.316" y2="10.894" gradientUnits="userSpaceOnUse"><stop stop-color="#FFE000"/><stop offset=".409" stop-color="#FFBD00"/><stop offset=".775" stop-color="orange"/><stop offset="1" stop-color="#FF9C00"/></linearGradient><linearGradient id="c" x1="14.043" y1="12.838" x2="1.297" y2="36.788" gradientUnits="userSpaceOnUse"><stop stop-color="#FF3A44"/><stop offset="1" stop-color="#C31162"/></linearGradient><linearGradient id="d" x1="-2.537" y1="-5.897" x2="3.149" y2="4.799" gradientUnits="userSpaceOnUse"><stop stop-color="#32A071"/><stop offset=".069" stop-color="#2DA771"/><stop offset=".476" stop-color="#15CF74"/><stop offset=".801" stop-color="#06E775"/><stop offset="1" stop-color="#00F076"/></linearGradient></defs></svg>