<svg width="17" height="17" fill="none" xmlns="http://www.w3.org/2000/svg"><g clip-path="url(#a)"><path d="M8.502 0h-.004C3.81 0 0 3.812 0 8.5c0 1.86.6 3.583 1.618 4.982L.558 16.64l3.268-1.045A8.426 8.426 0 0 0 8.502 17C13.19 17 17 13.187 17 8.5 17 3.813 13.189 0 8.502 0Z" fill="#4CAF50"/><path d="M13.448 12.003c-.205.58-1.019 1.06-1.668 1.2-.444.094-1.024.17-2.977-.64-2.498-1.035-4.106-3.573-4.232-3.738-.12-.165-1.01-1.344-1.01-2.564s.62-1.813.87-2.068c.205-.21.544-.305.869-.305.105 0 .2.005.285.01.25.01.375.025.54.419.205.494.704 1.714.763 1.84.061.125.122.295.037.46-.08.17-.15.245-.276.39-.125.144-.244.254-.37.41-.114.134-.244.279-.1.528.145.245.645 1.06 1.38 1.714.949.845 1.718 1.115 1.993 1.23.205.085.45.064.6-.095.19-.205.424-.545.664-.88.17-.24.384-.27.61-.185.229.08 1.443.68 1.693.805s.414.184.475.29c.06.105.06.599-.146 1.18Z" fill="#FAFAFA"/></g><defs><clipPath id="a"><path fill="#fff" d="M0 0h17v17H0z"/></clipPath></defs></svg>