<svg width="86" height="19" fill="none" xmlns="http://www.w3.org/2000/svg"><path d="M13.627 9.616c-.02-2.287 2.077-3.397 2.17-3.45-1.19-1.558-3.033-1.773-3.678-1.792-1.545-.147-3.049.838-3.832.838-.8 0-2.018-.82-3.325-.797-1.68.027-3.258.902-4.117 2.268-1.78 2.778-.452 6.865 1.252 9.11.859 1.098 1.852 2.332 3.162 2.287 1.278-.045 1.76-.736 3.296-.736 1.529 0 1.977.736 3.309.71 1.373-.02 2.232-1.106 3.061-2.215.984-1.257 1.382-2.503 1.395-2.567-.034-.018-2.664-.924-2.693-3.656Zm-2.513-6.718C11.801 2.125 12.27 1.072 12.14 0c-.992.038-2.24.619-2.956 1.377-.633.672-1.198 1.763-1.056 2.79 1.123.079 2.27-.51 2.986-1.269ZM32.137 15.27h-1.784l-.976-2.77h-3.4l-.93 2.77h-1.738l3.367-9.431h2.081l3.38 9.43Zm-3.057-3.933-.884-2.46c-.092-.257-.268-.842-.523-1.774h-.034c-.104.404-.268.996-.494 1.773l-.875 2.461h2.81Zm11.71.453c0 1.154-.348 2.068-1.047 2.74-.624.6-1.403.894-2.324.894-1.001 0-1.713-.321-2.153-.963v3.57h-1.68v-7.328c0-.729-.02-1.468-.062-2.234h1.474l.092 1.079h.03c.56-.811 1.41-1.219 2.542-1.219.892 0 1.629.32 2.223.951.608.638.905 1.468.905 2.51Zm-1.709.049c0-.665-.163-1.208-.494-1.634-.36-.446-.85-.672-1.462-.672-.41 0-.787.128-1.126.37-.335.249-.561.57-.658.97-.05.184-.08.34-.08.46v1.136c0 .49.173.913.503 1.253.335.34.771.51 1.311.51.633 0 1.118-.223 1.474-.657.356-.438.532-1.012.532-1.736Zm10.381-.049c0 1.154-.348 2.068-1.047 2.74-.624.6-1.403.894-2.325.894-1 0-1.713-.321-2.152-.963v3.57h-1.68v-7.328c0-.729-.02-1.468-.062-2.234h1.474l.092 1.079h.03c.56-.811 1.41-1.219 2.541-1.219.892 0 1.63.32 2.224.951.607.638.905 1.468.905 2.51Zm-1.709.049c0-.665-.163-1.208-.494-1.634-.36-.446-.85-.672-1.462-.672-.41 0-.787.128-1.126.37-.335.249-.553.57-.658.97-.05.184-.08.34-.08.46v1.136c0 .49.172.913.503 1.253.335.34.77.51 1.311.51.632 0 1.127-.223 1.474-.657.36-.438.532-1.012.532-1.736Zm11.419.789c0 .803-.31 1.456-.93 1.958-.679.551-1.63.823-2.848.823-1.127 0-2.027-.196-2.705-.589l.389-1.257a5.122 5.122 0 0 0 2.425.59c.632 0 1.127-.13 1.474-.386.356-.256.532-.6.532-1.026 0-.385-.15-.702-.431-.963-.29-.26-.771-.505-1.445-.728-1.851-.619-2.764-1.52-2.764-2.702 0-.774.326-1.404.971-1.902.645-.49 1.504-.74 2.572-.74.95 0 1.742.148 2.374.446l-.427 1.226c-.595-.287-1.26-.434-2.014-.434-.587 0-1.056.136-1.39.389-.277.238-.42.517-.42.857 0 .37.164.683.482.92.276.223.787.468 1.524.729.9.324 1.559.71 1.986 1.15.431.435.645.986.645 1.639Zm5.552-3.023h-1.85v3.302c0 .838.326 1.257.975 1.257.297 0 .545-.027.745-.072l.05 1.15c-.334.11-.766.167-1.302.167-.666 0-1.176-.185-1.553-.551-.377-.362-.562-.978-.562-1.834v-3.43H60.13v-1.13h1.097V7.22l1.646-.446v1.691h1.851v1.14Zm8.322 2.211c0 1.046-.335 1.902-.992 2.574-.695.69-1.617 1.034-2.764 1.034-1.106 0-1.99-.332-2.651-.989-.658-.656-.984-1.494-.984-2.502 0-1.053.339-1.917 1.013-2.585.679-.672 1.596-1.007 2.743-1.007 1.106 0 1.998.332 2.672.996.645.634.963 1.464.963 2.48Zm-1.738.03c0-.626-.15-1.154-.448-1.603-.356-.544-.858-.812-1.507-.812-.675 0-1.19.268-1.537.812-.306.445-.448.988-.448 1.634 0 .626.15 1.162.448 1.603.36.544.87.812 1.524.812.637 0 1.14-.276 1.508-.823.305-.46.46-.996.46-1.623Zm7.19-2.049a3.337 3.337 0 0 0-.532-.038c-.587 0-1.047.196-1.37.6-.276.351-.419.804-.419 1.34v3.57h-1.679v-4.66c0-.786-.013-1.503-.05-2.14h1.461l.063 1.302h.05a2.32 2.32 0 0 1 .838-1.08 2.2 2.2 0 0 1 1.21-.362c.155 0 .298.011.42.026l.008 1.442ZM86 11.548c0 .268-.021.498-.063.683h-5.03c.021.672.264 1.189.729 1.54.427.313.972.471 1.646.471.745 0 1.424-.109 2.035-.32l.264 1.045c-.716.28-1.558.423-2.53.423-1.168 0-2.09-.314-2.755-.932-.666-.62-1.001-1.457-1.001-2.499 0-1.022.31-1.875.934-2.558.653-.729 1.528-1.09 2.634-1.09 1.085 0 1.914.361 2.467 1.09.44.588.67 1.298.67 2.147Zm-1.604-.392a1.9 1.9 0 0 0-.327-1.163c-.289-.422-.737-.634-1.332-.634-.544 0-.992.204-1.331.612-.277.324-.449.72-.495 1.173l3.485.012Z" fill="#fff"/></svg>